<!DOCTYPE svg PUBLIC "-//W3C//DTD SVG 1.1//EN" "http://www.w3.org/Graphics/SVG/1.1/DTD/svg11.dtd">

<!-- Uploaded to: SVG Repo, www.svgrepo.com, Transformed by: SVG Repo Mixer Tools -->
<svg width="800px" height="800px" viewBox="0 -0.5 25 25" fill="none" xmlns="http://www.w3.org/2000/svg">

<g id="SVGRepo_bgCarrier" stroke-width="0"/>

<g id="SVGRepo_tracerCarrier" stroke-linecap="round" stroke-linejoin="round"/>

<g id="SVGRepo_iconCarrier"> <path fill-rule="evenodd" clip-rule="evenodd" d="M9.5852 17.982L7.8182 18.882C7.74952 18.9162 7.66799 18.9121 7.60305 18.8713C7.53811 18.8304 7.49914 18.7587 7.5002 18.682V5.955C7.4896 5.4384 7.89961 5.01093 8.4162 5H17.5832C18.0998 5.01093 18.5098 5.4384 18.4992 5.955V18.682C18.5003 18.7587 18.4613 18.8304 18.3963 18.8713C18.3314 18.9121 18.2499 18.9162 18.1812 18.882L16.4142 17.982C16.3438 17.9461 16.2595 17.9514 16.1942 17.996L14.7722 18.962C14.6986 19.0121 14.6018 19.0121 14.5282 18.962L13.1222 18.007C13.0486 17.9569 12.9518 17.9569 12.8782 18.007L11.4722 18.962C11.3986 19.0121 11.3018 19.0121 11.2282 18.962L9.8052 18C9.7407 17.9542 9.6563 17.9472 9.5852 17.982Z" stroke="#fff" stroke-width="1.5" stroke-linecap="round" stroke-linejoin="round"/> <path d="M10.4992 13.25C10.085 13.25 9.7492 13.5858 9.7492 14C9.7492 14.4142 10.085 14.75 10.4992 14.75V13.25ZM15.4132 14.75C15.8274 14.75 16.1632 14.4142 16.1632 14C16.1632 13.5858 15.8274 13.25 15.4132 13.25V14.75ZM11.5295 9.96967C11.2366 9.67678 10.7618 9.67678 10.4689 9.96967C10.176 10.2626 10.176 10.7374 10.4689 11.0303L11.5295 9.96967ZM11.9992 11.5L11.4689 12.0303C11.7618 12.3232 12.2366 12.3232 12.5295 12.0303L11.9992 11.5ZM15.5295 9.03033C15.8224 8.73744 15.8224 8.26256 15.5295 7.96967C15.2366 7.67678 14.7618 7.67678 14.4689 7.96967L15.5295 9.03033ZM10.4992 14.75H15.4132V13.25H10.4992V14.75ZM10.4689 11.0303L11.4689 12.0303L12.5295 10.9697L11.5295 9.96967L10.4689 11.0303ZM12.5295 12.0303L15.5295 9.03033L14.4689 7.96967L11.4689 10.9697L12.5295 12.0303Z" fill="#fff"/> </g>

</svg>